# xmcd
#
# Track frame offsets:
#	187
#	13425
#	25150
#	37800
#	51112
#	62687
#	75237
#	87887
#	100687
#	113500
#	125437
#	137837
#	149662
#	159625
#	177187
#	188150
#	201500
#	213900
#	225950
#	238400
#
# Disc length: 3335 seconds
#
# Revision: 4
# Processed by: cddbd v1.5PL3 Copyright (c) Steve Scherf et al.
# Submitted via: CDex 1.50Beta5
#
DISCID=0d0d0514
DTITLE=hank Williams - Best 2000
DYEAR=1900
DGENRE=Country
TTITLE0=Jambalaya
TTITLE1=Kaw.Liga
TTITLE2=I Saw The Light
TTITLE3=Wedding Bells
TTITLE4=my Bucket's Got A Hole In It
TTITLE5=Opld Cold Heart
TTITLE6=I'm So Lonesome I Could Cry
TTITLE7=I Don't Care
TTITLE8=Pan American
TTITLE9=Long Gone Lonesome Blues
TTITLE10=Your Cheatin' Heart
TTITLE11=A Mantion On The Hill
TTITLE12=Honky Tonk Blues
TTITLE13=Cool Water
TTITLE14=I Can't HELP It
TTITLE15=Hey、GOOD Lookin'
TTITLE16=Lovesick Blues
TTITLE17=TAKE These Chins Frome My Heart
TTITLE18=Half As Much
TTITLE19=You Win Again
EXTD=
EXTT0=
EXTT1=
EXTT2=
EXTT3=
EXTT4=
EXTT5=
EXTT6=
EXTT7=
EXTT8=
EXTT9=
EXTT10=
EXTT11=
EXTT12=
EXTT13=
EXTT14=
EXTT15=
EXTT16=
EXTT17=
EXTT18=
EXTT19=
PLAYORDER=
